# xmcd CD database file
#
# Track frame offsets:
#	150
#	21545
#	24942
#	40585
#	54567
#	66422
#	72327
#	90205
#	95230
#	105170
#	115575
#	124987
#	138460
#	151860
#	167610
#	185350
#	201102
#	210197
#	215957
#	236847
#	240957
#	255520
#	268925
#	280302
#	295017
#	307780
#	324757
#	340290
#
# Disc length: 4593 seconds
#
# Revision: 0
# Processed by: cddbd v1.4PL0 Copyright (c) Steve Scherf et al.
# Submitted via: CDex 1.50Beta7
#
DISCID=8a11ef1c
DTITLE=SMusK - Get Happy
DYEAR=1995
DGENRE=Jazz
TTITLE0=Billiga Bittar
TTITLE1=Men Först
TTITLE2=Sing Sing Sing
TTITLE3=My Heart Belongs to Daddy
TTITLE4=I Love Louisa
TTITLE5=Interlude I
TTITLE6=Sweet Georgia Brown
TTITLE7=Interlude II
TTITLE8=Djurens Bar
TTITLE9=Big Bamboo
TTITLE10=Interlude III
TTITLE11=Darktown Strutters Ball
TTITLE12=Spanish Shawl
TTITLE13=Deliah
TTITLE14=På Havet
TTITLE15=Harlem Bound
TTITLE16=Interlude IV
TTITLE17=Dream of You
TTITLE18=Texas and Pacific
TTITLE19=Interlude V
TTITLE20=Knock Me a Kiss
TTITLE21=Get Happy
TTITLE22=Interlude VI
TTITLE23=Fly me to the Moon
TTITLE24=Who's Sorry Now
TTITLE25=Ain't Misshehavin'
TTITLE26=You are my Sunshine
TTITLE27=Interlude VII
EXTD=YEAR: 1995
EXTT0=
EXTT1=
EXTT2=
EXTT3=
EXTT4=
EXTT5=
EXTT6=
EXTT7=
EXTT8=
EXTT9=
EXTT10=
EXTT11=
EXTT12=
EXTT13=
EXTT14=
EXTT15=
EXTT16=
EXTT17=
EXTT18=
EXTT19=
EXTT20=
EXTT21=
EXTT22=
EXTT23=
EXTT24=
EXTT25=
EXTT26=
EXTT27=
PLAYORDER=
